<?xml version="1.0" standalone="no"?><!DOCTYPE svg PUBLIC "-//W3C//DTD SVG 1.1//EN" "http://www.w3.org/Graphics/SVG/1.1/DTD/svg11.dtd"><svg t="1709118947717" class="icon" viewBox="0 0 1024 1024" version="1.1" xmlns="http://www.w3.org/2000/svg" p-id="13269" xmlns:xlink="http://www.w3.org/1999/xlink" width="200" height="200"><path d="M240.49853 30.70194h541.798942c74.647854 0 135.449735 60.801881 135.449736 135.449735v722.39859c0 74.647854-60.801881 135.449735-135.449736 135.449735h-541.798942C165.850676 1024 105.048795 963.198119 105.048795 888.550265v-722.39859C105.048795 90.901822 165.850676 30.70194 240.49853 30.70194z" fill="#fff" p-id="13270"></path><path d="M285.648442 497.251029h270.899471c24.681952 0 45.149912-20.46796 45.149912-45.149912s-20.46796-45.149912-45.149912-45.149912h-270.899471c-24.681952 0-45.149912 20.46796-45.149912 45.149912s20.46796 45.149912 45.149912 45.149912z m0 180.599647h361.199295c24.681952 0 45.149912-20.46796 45.149911-45.149912s-20.46796-45.149912-45.149911-45.149912h-361.199295c-24.681952 0-45.149912 20.46796-45.149912 45.149912s20.46796 45.149912 45.149912 45.149912z m361.199295 90.299824h-361.199295c-24.681952 0-45.149912 20.46796-45.149912 45.149912s20.46796 45.149912 45.149912 45.149911h361.199295a45.089712 45.089712 0 1 0 0-90.299823z" fill="#000" p-id="13271"></path><path d="M917.747208 316.651382l-45.149912 210.699588-270.899471-361.199295V30.70194h180.599647c74.647854 0 135.449735 60.801881 135.449736 135.449735v150.499707z" fill="#fff" p-id="13272"></path><path d="M601.697825 30.70194h180.599647c74.647854 0 135.449735 60.801881 135.449736 135.449735v135.449736H601.697825V30.70194z" fill="#fff" p-id="13273"></path></svg>