<?xml version="1.0" standalone="no"?><!DOCTYPE svg PUBLIC "-//W3C//DTD SVG 1.1//EN" "http://www.w3.org/Graphics/SVG/1.1/DTD/svg11.dtd"><svg t="1709118123478" class="icon" viewBox="0 0 1024 1024" version="1.1" xmlns="http://www.w3.org/2000/svg" p-id="7314" xmlns:xlink="http://www.w3.org/1999/xlink" width="200" height="200"><path d="M476.8 543.168H250.496c-27.392 0-41.152-20.48-41.152-40.96s20.608-40.96 41.152-40.96h246.848c20.608 0 34.304 13.632 41.152 27.264 48-27.264 102.848-47.744 171.456-47.744 54.848 0 109.696 13.632 157.696 40.96V222.272c0-47.744-48-88.704-102.848-88.704h-192C559.104 78.912 511.104 44.8 456.256 44.8c-54.912 0-102.912 34.112-116.608 88.768h-192C92.8 133.568 44.8 174.528 44.8 222.272v655.36c0 47.808 48 88.768 102.848 88.768H476.8c-48-54.592-82.304-129.728-82.304-204.8 0-88.768 27.456-156.992 82.304-218.432z m-13.696-402.816c27.392 0 41.152 20.48 41.152 40.96s-20.608 40.96-41.152 40.96c-20.608 0-41.152-20.48-41.152-40.96-6.848-20.48 13.696-40.96 41.152-40.96zM243.648 317.888H648.32c20.544 0 41.088 20.48 41.088 40.96s-20.544 40.96-41.088 40.96H243.648c-20.544-6.848-34.304-20.48-34.304-40.96s13.76-34.176 34.304-40.96z" fill="#fff" p-id="7315"></path><path d="M703.104 515.84a245.312 245.312 0 0 0-246.848 245.76 245.312 245.312 0 0 0 246.848 245.76 245.312 245.312 0 0 0 246.848-245.76c0-136.512-102.848-245.76-246.848-245.76z" fill="#fff" p-id="7316"></path><path d="M737.344 618.24c0-13.632-13.696-27.328-27.392-27.328s-27.456 13.696-27.456 27.328v116.032c0 13.696 13.76 27.328 27.456 27.328s27.392-13.632 27.392-27.328V618.24z" fill="#fff" p-id="7317"></path></svg>